M48
; DRILL file {KiCad 7.0.7} date Wed Sep 27 09:45:05 2023
; FORMAT={-:-/ absolute / inch / decimal}
; #@! TF.CreationDate,2023-09-27T09:45:05-05:00
; #@! TF.GenerationSoftware,Kicad,Pcbnew,7.0.7
; #@! TF.FileFunction,Plated,1,2,PTH
FMAT,2
INCH
; #@! TA.AperFunction,Plated,PTH,ViaDrill
T1C0.0315
; #@! TA.AperFunction,Plated,PTH,ComponentDrill
T2C0.0394
; #@! TA.AperFunction,Plated,PTH,ComponentDrill
T3C0.0591
%
G90
G05
T1
X3.8728Y-4.0264
X4.8807Y-2.9709
T2
X4.034Y-2.001
X4.034Y-2.101
X4.034Y-2.201
X4.034Y-2.301
X4.034Y-2.401
X4.034Y-2.501
X4.034Y-2.601
X4.034Y-2.701
X4.034Y-2.801
X4.034Y-2.901
X4.034Y-3.001
X4.034Y-3.101
X4.034Y-3.201
X4.034Y-3.301
X4.034Y-3.401
X4.034Y-3.501
X4.034Y-3.601
X4.034Y-3.701
X4.034Y-3.801
X4.034Y-3.901
X4.035Y-4.2144
X4.035Y-4.3144
X4.035Y-4.4144
X4.035Y-4.5144
X4.035Y-4.6144
X4.035Y-4.7144
X4.035Y-4.8144
X4.035Y-4.9144
X4.06Y-5.548
X4.632Y-4.214
X4.632Y-4.314
X4.632Y-4.414
X4.632Y-4.514
X4.632Y-4.614
X4.632Y-4.714
X4.632Y-4.814
X4.632Y-4.914
X4.632Y-5.56
X4.734Y-1.998
X4.734Y-2.098
X4.734Y-2.198
X4.734Y-2.298
X4.734Y-2.398
X4.734Y-2.498
X4.734Y-2.598
X4.734Y-2.698
X4.734Y-2.798
X4.734Y-2.898
X4.734Y-2.998
X4.734Y-3.098
X4.734Y-3.198
X4.734Y-3.298
X4.734Y-3.398
X4.734Y-3.498
X4.734Y-3.598
X4.734Y-3.698
X4.734Y-3.798
X4.734Y-3.898
T3
X3.5136Y-2.0871
X3.5136Y-2.284
X3.5136Y-2.4809
X3.5191Y-2.8463
X3.5191Y-3.0431
X3.5191Y-3.24
X3.5244Y-5.3512
X3.5244Y-5.548
X3.5244Y-5.7449
X3.5251Y-3.7563
X3.5251Y-3.9531
X3.5251Y-4.15
X3.5276Y-4.6191
X3.5276Y-4.816
X3.5276Y-5.0129
X5.1916Y-4.2903
X5.1916Y-4.4871
X5.1916Y-4.684
X5.1956Y-3.5563
X5.1956Y-3.7531
X5.1956Y-3.95
X5.198Y-2.0903
X5.198Y-2.2871
X5.198Y-2.484
X5.2036Y-5.0534
X5.2036Y-5.2503
X5.2036Y-5.4471
X5.236Y-2.8223
X5.236Y-3.0191
X5.236Y-3.216
T0
M30
