%TF.GenerationSoftware,KiCad,Pcbnew,7.0.7*%
%TF.CreationDate,2023-09-27T09:45:00-05:00*%
%TF.ProjectId,PCB,5043422e-6b69-4636-9164-5f7063625858,rev?*%
%TF.SameCoordinates,Original*%
%TF.FileFunction,Copper,L1,Top*%
%TF.FilePolarity,Positive*%
%FSLAX46Y46*%
G04 Gerber Fmt 4.6, Leading zero omitted, Abs format (unit mm)*
G04 Created by KiCad (PCBNEW 7.0.7) date 2023-09-27 09:45:00*
%MOMM*%
%LPD*%
G01*
G04 APERTURE LIST*
G04 Aperture macros list*
%AMRoundRect*
0 Rectangle with rounded corners*
0 $1 Rounding radius*
0 $2 $3 $4 $5 $6 $7 $8 $9 X,Y pos of 4 corners*
0 Add a 4 corners polygon primitive as box body*
4,1,4,$2,$3,$4,$5,$6,$7,$8,$9,$2,$3,0*
0 Add four circle primitives for the rounded corners*
1,1,$1+$1,$2,$3*
1,1,$1+$1,$4,$5*
1,1,$1+$1,$6,$7*
1,1,$1+$1,$8,$9*
0 Add four rect primitives between the rounded corners*
20,1,$1+$1,$2,$3,$4,$5,0*
20,1,$1+$1,$4,$5,$6,$7,0*
20,1,$1+$1,$6,$7,$8,$9,0*
20,1,$1+$1,$8,$9,$2,$3,0*%
G04 Aperture macros list end*
%TA.AperFunction,ComponentPad*%
%ADD10R,2.000000X2.000000*%
%TD*%
%TA.AperFunction,ComponentPad*%
%ADD11R,3.000000X3.000000*%
%TD*%
%TA.AperFunction,ComponentPad*%
%ADD12RoundRect,0.375000X-1.125000X1.125000X-1.125000X-1.125000X1.125000X-1.125000X1.125000X1.125000X0*%
%TD*%
%TA.AperFunction,ComponentPad*%
%ADD13RoundRect,0.375000X1.125000X-1.125000X1.125000X1.125000X-1.125000X1.125000X-1.125000X-1.125000X0*%
%TD*%
%TA.AperFunction,ViaPad*%
%ADD14C,2.000000*%
%TD*%
%TA.AperFunction,Conductor*%
%ADD15C,1.000000*%
%TD*%
G04 APERTURE END LIST*
D10*
%TO.P,J15,1,Pin_1*%
%TO.N,V_Motor*%
X103124000Y-140919200D03*
%TD*%
D11*
%TO.P,J7,1,Pin_1*%
%TO.N,TX*%
X89244300Y-53013600D03*
%TO.P,J7,2,Pin_2*%
%TO.N,RX*%
X89244300Y-58013600D03*
%TO.P,J7,3,Pin_3*%
%TO.N,unconnected-(J7-Pin_3-Pad3)*%
X89244300Y-63013600D03*
%TD*%
%TO.P,J3,1,Pin_1*%
%TO.N,EncoB1*%
X89385400Y-72296000D03*
%TO.P,J3,2,Pin_2*%
%TO.N,EncoA1*%
X89385400Y-77296000D03*
%TO.P,J3,3,Pin_3*%
%TO.N,3.3V*%
X89385400Y-82296000D03*
%TD*%
D10*
%TO.P,J8,1,Pin_1*%
%TO.N,V_Motor*%
X102489400Y-107046000D03*
%TO.P,J8,2,Pin_2*%
%TO.N,5V I_O*%
X102489400Y-109586000D03*
%TO.P,J8,3,Pin_3*%
%TO.N,GND*%
X102489400Y-112126000D03*
%TO.P,J8,4,Pin_4*%
%TO.N,A01*%
X102489400Y-114666000D03*
%TO.P,J8,5,Pin_5*%
%TO.N,A02*%
X102489400Y-117206000D03*
%TO.P,J8,6,Pin_6*%
%TO.N,B02*%
X102489400Y-119746000D03*
%TO.P,J8,7,Pin_7*%
%TO.N,B01*%
X102489400Y-122286000D03*
%TO.P,J8,8,Pin_8*%
%TO.N,GND*%
X102489400Y-124826000D03*
%TD*%
D12*
%TO.P,J14,1,Pin_1*%
%TO.N,Fc4*%
X132170300Y-128357600D03*
D11*
%TO.P,J14,2,Pin_2*%
%TO.N,GND*%
X132170300Y-133357600D03*
%TO.P,J14,3,Pin_3*%
%TO.N,unconnected-(J14-Pin_3-Pad3)*%
X132170300Y-138357600D03*
%TD*%
%TO.P,J11,1,Pin_1*%
%TO.N,GND*%
X89537800Y-95410000D03*
%TO.P,J11,2,Pin_2*%
%TO.N,A02*%
X89537800Y-100410000D03*
%TO.P,J11,3,Pin_3*%
%TO.N,A01*%
X89537800Y-105410000D03*
%TD*%
D10*
%TO.P,J9,1,Pin_1*%
%TO.N,GND*%
X117652800Y-124815600D03*
%TO.P,J9,2,Pin_2*%
%TO.N,PWMB*%
X117652800Y-122275600D03*
%TO.P,J9,3,Pin_3*%
%TO.N,BIN2*%
X117652800Y-119735600D03*
%TO.P,J9,4,Pin_4*%
%TO.N,BIN1*%
X117652800Y-117195600D03*
%TO.P,J9,5,Pin_5*%
%TO.N,STBY*%
X117652800Y-114655600D03*
%TO.P,J9,6,Pin_6*%
%TO.N,AIN1*%
X117652800Y-112115600D03*
%TO.P,J9,7,Pin_7*%
%TO.N,AIN2*%
X117652800Y-109575600D03*
%TO.P,J9,8,Pin_8*%
%TO.N,PWMA*%
X117652800Y-107035600D03*
%TD*%
D12*
%TO.P,J12,1,Pin_1*%
%TO.N,GND*%
X89520000Y-135920000D03*
D11*
%TO.P,J12,2,Pin_2*%
%TO.N,B02*%
X89520000Y-140920000D03*
%TO.P,J12,3,Pin_3*%
%TO.N,B01*%
X89520000Y-145920000D03*
%TD*%
D10*
%TO.P,J2,1,Pin_1*%
%TO.N,unconnected-(J2-Pin_1-Pad1)*%
X120243600Y-99009200D03*
%TO.P,J2,2,Pin_2*%
%TO.N,unconnected-(J2-Pin_2-Pad2)*%
X120243600Y-96469200D03*
%TO.P,J2,3,Pin_3*%
%TO.N,GND*%
X120243600Y-93929200D03*
%TO.P,J2,4,Pin_4*%
%TO.N,Fc4*%
X120243600Y-91389200D03*
%TO.P,J2,5,Pin_5*%
%TO.N,Fc3*%
X120243600Y-88849200D03*
%TO.P,J2,6,Pin_6*%
%TO.N,Fc2*%
X120243600Y-86309200D03*
%TO.P,J2,7,Pin_7*%
%TO.N,Fc1*%
X120243600Y-83769200D03*
%TO.P,J2,8,Pin_8*%
%TO.N,GND*%
X120243600Y-81229200D03*
%TO.P,J2,9,Pin_9*%
%TO.N,PWM_Servo*%
X120243600Y-78689200D03*
%TO.P,J2,10,Pin_10*%
%TO.N,unconnected-(J2-Pin_10-Pad10)*%
X120243600Y-76149200D03*
%TO.P,J2,11,Pin_11*%
%TO.N,unconnected-(J2-Pin_11-Pad11)*%
X120243600Y-73609200D03*
%TO.P,J2,12,Pin_12*%
%TO.N,unconnected-(J2-Pin_12-Pad12)*%
X120243600Y-71069200D03*
%TO.P,J2,13,Pin_13*%
%TO.N,unconnected-(J2-Pin_13-Pad13)*%
X120243600Y-68529200D03*
%TO.P,J2,14,Pin_14*%
%TO.N,unconnected-(J2-Pin_14-Pad14)*%
X120243600Y-65989200D03*
%TO.P,J2,15,Pin_15*%
%TO.N,unconnected-(J2-Pin_15-Pad15)*%
X120243600Y-63449200D03*
%TO.P,J2,16,Pin_16*%
%TO.N,3.3V*%
X120243600Y-60909200D03*
%TO.P,J2,17,Pin_17*%
%TO.N,unconnected-(J2-Pin_17-Pad17)*%
X120243600Y-58369200D03*
%TO.P,J2,18,Pin_18*%
%TO.N,GND*%
X120243600Y-55829200D03*
%TO.P,J2,19,Pin_19*%
%TO.N,unconnected-(J2-Pin_19-Pad19)*%
X120243600Y-53289200D03*
%TO.P,J2,20,Pin_20*%
%TO.N,5V I_O*%
X120243600Y-50749200D03*
%TD*%
D13*
%TO.P,J6,1,Pin_1*%
%TO.N,PWM_Servo*%
X132994400Y-81686400D03*
D11*
%TO.P,J6,2,Pin_2*%
%TO.N,5V I_O*%
X132994400Y-76686400D03*
%TO.P,J6,3,Pin_3*%
%TO.N,GND*%
X132994400Y-71686400D03*
%TD*%
D12*
%TO.P,J4,1,Pin_1*%
%TO.N,EncoB2*%
X89599900Y-117326400D03*
D11*
%TO.P,J4,2,Pin_2*%
%TO.N,EncoA2*%
X89599900Y-122326400D03*
%TO.P,J4,3,Pin_3*%
%TO.N,3.3V*%
X89599900Y-127326400D03*
%TD*%
D10*
%TO.P,J1,1,Pin_1*%
%TO.N,TX*%
X102463600Y-50825400D03*
%TO.P,J1,2,Pin_2*%
%TO.N,RX*%
X102463600Y-53365400D03*
%TO.P,J1,3,Pin_3*%
%TO.N,GND*%
X102463600Y-55905400D03*
%TO.P,J1,4,Pin_4*%
%TO.N,EncoB1*%
X102463600Y-58445400D03*
%TO.P,J1,5,Pin_5*%
%TO.N,EncoA1*%
X102463600Y-60985400D03*
%TO.P,J1,6,Pin_6*%
%TO.N,EncoB2*%
X102463600Y-63525400D03*
%TO.P,J1,7,Pin_7*%
%TO.N,EncoA2*%
X102463600Y-66065400D03*
%TO.P,J1,8,Pin_8*%
%TO.N,GND*%
X102463600Y-68605400D03*
%TO.P,J1,9,Pin_9*%
%TO.N,unconnected-(J1-Pin_9-Pad9)*%
X102463600Y-71145400D03*
%TO.P,J1,10,Pin_10*%
%TO.N,unconnected-(J1-Pin_10-Pad10)*%
X102463600Y-73685400D03*
%TO.P,J1,11,Pin_11*%
%TO.N,unconnected-(J1-Pin_11-Pad11)*%
X102463600Y-76225400D03*
%TO.P,J1,12,Pin_12*%
%TO.N,PWMA*%
X102463600Y-78765400D03*
%TO.P,J1,13,Pin_13*%
%TO.N,GND*%
X102463600Y-81305400D03*
%TO.P,J1,14,Pin_14*%
%TO.N,AIN2*%
X102463600Y-83845400D03*
%TO.P,J1,15,Pin_15*%
%TO.N,AIN1*%
X102463600Y-86385400D03*
%TO.P,J1,16,Pin_16*%
%TO.N,STBY*%
X102463600Y-88925400D03*
%TO.P,J1,17,Pin_17*%
%TO.N,BIN1*%
X102463600Y-91465400D03*
%TO.P,J1,18,Pin_18*%
%TO.N,GND*%
X102463600Y-94005400D03*
%TO.P,J1,19,Pin_19*%
%TO.N,BIN2*%
X102463600Y-96545400D03*
%TO.P,J1,20,Pin_20*%
%TO.N,PWMB*%
X102463600Y-99085400D03*
%TD*%
D12*
%TO.P,J10,1,Pin_1*%
%TO.N,5V I_O*%
X132029200Y-53093600D03*
D11*
%TO.P,J10,2,Pin_2*%
%TO.N,GND*%
X132029200Y-58093600D03*
%TO.P,J10,3,Pin_3*%
%TO.N,unconnected-(J10-Pin_3-Pad3)*%
X132029200Y-63093600D03*
%TD*%
D10*
%TO.P,J16,1,Pin_1*%
%TO.N,GND*%
X117652800Y-141224000D03*
%TD*%
D11*
%TO.P,J5,1,Pin_1*%
%TO.N,Fc1*%
X131967100Y-90330000D03*
%TO.P,J5,2,Pin_2*%
%TO.N,GND*%
X131967100Y-95330000D03*
%TO.P,J5,3,Pin_3*%
%TO.N,Fc2*%
X131967100Y-100330000D03*
%TD*%
D12*
%TO.P,J13,1,Pin_1*%
%TO.N,GND*%
X131865500Y-108973600D03*
D11*
%TO.P,J13,2,Pin_2*%
%TO.N,Fc3*%
X131865500Y-113973600D03*
%TO.P,J13,3,Pin_3*%
%TO.N,GND*%
X131865500Y-118973600D03*
%TD*%
D14*
%TO.N,5V I_O*%
X123970000Y-75460000D03*
X98370000Y-102270000D03*
%TD*%
D15*
%TO.N,5V I_O*%
X98370000Y-102270000D02*
X120382800Y-102270000D01*
X120382800Y-102270000D02*
X123970000Y-98682800D01*
X123970000Y-98682800D02*
X123970000Y-75460000D01*
%TD*%
M02*
