%TF.GenerationSoftware,KiCad,Pcbnew,7.0.7*%
%TF.CreationDate,2023-09-27T09:45:00-05:00*%
%TF.ProjectId,PCB,5043422e-6b69-4636-9164-5f7063625858,rev?*%
%TF.SameCoordinates,Original*%
%TF.FileFunction,Soldermask,Bot*%
%TF.FilePolarity,Negative*%
%FSLAX46Y46*%
G04 Gerber Fmt 4.6, Leading zero omitted, Abs format (unit mm)*
G04 Created by KiCad (PCBNEW 7.0.7) date 2023-09-27 09:45:00*
%MOMM*%
%LPD*%
G01*
G04 APERTURE LIST*
G04 Aperture macros list*
%AMRoundRect*
0 Rectangle with rounded corners*
0 $1 Rounding radius*
0 $2 $3 $4 $5 $6 $7 $8 $9 X,Y pos of 4 corners*
0 Add a 4 corners polygon primitive as box body*
4,1,4,$2,$3,$4,$5,$6,$7,$8,$9,$2,$3,0*
0 Add four circle primitives for the rounded corners*
1,1,$1+$1,$2,$3*
1,1,$1+$1,$4,$5*
1,1,$1+$1,$6,$7*
1,1,$1+$1,$8,$9*
0 Add four rect primitives between the rounded corners*
20,1,$1+$1,$2,$3,$4,$5,0*
20,1,$1+$1,$4,$5,$6,$7,0*
20,1,$1+$1,$6,$7,$8,$9,0*
20,1,$1+$1,$8,$9,$2,$3,0*%
G04 Aperture macros list end*
%ADD10R,2.000000X2.000000*%
%ADD11R,3.000000X3.000000*%
%ADD12RoundRect,0.375000X-1.125000X1.125000X-1.125000X-1.125000X1.125000X-1.125000X1.125000X1.125000X0*%
%ADD13RoundRect,0.375000X1.125000X-1.125000X1.125000X1.125000X-1.125000X1.125000X-1.125000X-1.125000X0*%
G04 APERTURE END LIST*
D10*
%TO.C,J15*%
X103124000Y-140919200D03*
%TD*%
D11*
%TO.C,J7*%
X89244300Y-53013600D03*
X89244300Y-58013600D03*
X89244300Y-63013600D03*
%TD*%
%TO.C,J3*%
X89385400Y-72296000D03*
X89385400Y-77296000D03*
X89385400Y-82296000D03*
%TD*%
D10*
%TO.C,J8*%
X102489400Y-107046000D03*
X102489400Y-109586000D03*
X102489400Y-112126000D03*
X102489400Y-114666000D03*
X102489400Y-117206000D03*
X102489400Y-119746000D03*
X102489400Y-122286000D03*
X102489400Y-124826000D03*
%TD*%
D12*
%TO.C,J14*%
X132170300Y-128357600D03*
D11*
X132170300Y-133357600D03*
X132170300Y-138357600D03*
%TD*%
%TO.C,J11*%
X89537800Y-95410000D03*
X89537800Y-100410000D03*
X89537800Y-105410000D03*
%TD*%
D10*
%TO.C,J9*%
X117652800Y-124815600D03*
X117652800Y-122275600D03*
X117652800Y-119735600D03*
X117652800Y-117195600D03*
X117652800Y-114655600D03*
X117652800Y-112115600D03*
X117652800Y-109575600D03*
X117652800Y-107035600D03*
%TD*%
D12*
%TO.C,J12*%
X89520000Y-135920000D03*
D11*
X89520000Y-140920000D03*
X89520000Y-145920000D03*
%TD*%
D10*
%TO.C,J2*%
X120243600Y-99009200D03*
X120243600Y-96469200D03*
X120243600Y-93929200D03*
X120243600Y-91389200D03*
X120243600Y-88849200D03*
X120243600Y-86309200D03*
X120243600Y-83769200D03*
X120243600Y-81229200D03*
X120243600Y-78689200D03*
X120243600Y-76149200D03*
X120243600Y-73609200D03*
X120243600Y-71069200D03*
X120243600Y-68529200D03*
X120243600Y-65989200D03*
X120243600Y-63449200D03*
X120243600Y-60909200D03*
X120243600Y-58369200D03*
X120243600Y-55829200D03*
X120243600Y-53289200D03*
X120243600Y-50749200D03*
%TD*%
D13*
%TO.C,J6*%
X132994400Y-81686400D03*
D11*
X132994400Y-76686400D03*
X132994400Y-71686400D03*
%TD*%
D12*
%TO.C,J4*%
X89599900Y-117326400D03*
D11*
X89599900Y-122326400D03*
X89599900Y-127326400D03*
%TD*%
D10*
%TO.C,J1*%
X102463600Y-50825400D03*
X102463600Y-53365400D03*
X102463600Y-55905400D03*
X102463600Y-58445400D03*
X102463600Y-60985400D03*
X102463600Y-63525400D03*
X102463600Y-66065400D03*
X102463600Y-68605400D03*
X102463600Y-71145400D03*
X102463600Y-73685400D03*
X102463600Y-76225400D03*
X102463600Y-78765400D03*
X102463600Y-81305400D03*
X102463600Y-83845400D03*
X102463600Y-86385400D03*
X102463600Y-88925400D03*
X102463600Y-91465400D03*
X102463600Y-94005400D03*
X102463600Y-96545400D03*
X102463600Y-99085400D03*
%TD*%
D12*
%TO.C,J10*%
X132029200Y-53093600D03*
D11*
X132029200Y-58093600D03*
X132029200Y-63093600D03*
%TD*%
D10*
%TO.C,J16*%
X117652800Y-141224000D03*
%TD*%
D11*
%TO.C,J5*%
X131967100Y-90330000D03*
X131967100Y-95330000D03*
X131967100Y-100330000D03*
%TD*%
D12*
%TO.C,J13*%
X131865500Y-108973600D03*
D11*
X131865500Y-113973600D03*
X131865500Y-118973600D03*
%TD*%
M02*
